<?xml version="1.0" encoding="UTF-8"?>
<svg version="1.1" xmlns="http://www.w3.org/2000/svg" width="293" height="293">
<path d="M0 0 C85.47 0 170.94 0 259 0 C259.0928125 32.8246875 259.0928125 32.8246875 259.1875 66.3125 C259.21481201 73.18747314 259.24212402 80.06244629 259.27026367 87.14575195 C259.28381348 95.62927246 259.28381348 95.62927246 259.28633118 99.61784363 C259.29089724 102.36634835 259.30020112 105.11441903 259.31672668 107.86283875 C259.4279949 127.2270116 259.36852662 146.26736222 252.8125 164.75 C252.35967651 166.05819702 252.35967651 166.05819702 251.89770508 167.39282227 C243.80564294 189.9763343 229.07315227 209.51546118 210 224 C209.23429688 224.59296875 208.46859375 225.1859375 207.6796875 225.796875 C197.48873273 233.32781785 186.03522809 239.25904332 174.0625 243.375 C173.42119141 243.60131104 172.77988281 243.82762207 172.11914062 244.06079102 C153.65259821 249.99997006 134.5354742 249.40904318 115.38935852 249.30384064 C111.72090935 249.28652597 108.0525238 249.285939 104.3840332 249.28381348 C93.71431862 249.2681836 83.04465549 249.2263 72.375 249.1875 C48.49125 249.125625 24.6075 249.06375 0 249 C0 166.83 0 84.66 0 0 Z " fill="#EC0927" transform="translate(16,24)"/>
<path d="M0 0 C16.83 -0.061875 16.83 -0.061875 34 -0.125 C37.50882813 -0.14320801 41.01765625 -0.16141602 44.6328125 -0.18017578 C49.00390625 -0.18920898 49.00390625 -0.18920898 51.06689453 -0.19088745 C52.4712044 -0.1939068 53.87550997 -0.20082908 55.27978516 -0.21115112 C69.35794337 -0.30922307 83.28014823 0.42587088 96.6875 5.125 C97.56817139 5.42631836 98.44884277 5.72763672 99.35620117 6.03808594 C106.71994852 8.6721843 114.00073864 11.88003669 120 17 C120 21.39786517 117.20873051 23.27810787 114.26953125 26.234375 C113.68209641 26.83179504 113.09466156 27.42921509 112.48942566 28.04473877 C111.24328104 29.30608115 109.99302093 30.56336878 108.73901367 31.81689453 C106.82149929 33.74096992 104.92923084 35.68770805 103.03710938 37.63671875 C101.82439231 38.85823762 100.61024539 40.07833893 99.39453125 41.296875 C98.82974564 41.88321716 98.26496002 42.46955933 97.68305969 43.07366943 C96.04614258 44.68261719 96.04614258 44.68261719 93 47 C87.60229377 46.88461425 82.50573799 43.60864262 77.66796875 41.375 C70.13411069 38.55080614 61.96342071 38.7414854 54 38.4375 C52.93910156 38.39431641 51.87820312 38.35113281 50.78515625 38.30664062 C48.19020849 38.20144004 45.59517916 38.09929881 43 38 C43.04441223 38.69474426 43.08882446 39.38948853 43.13458252 40.10528564 C43.54028874 46.74870803 43.842136 53.3885515 44.03624344 60.04169083 C44.13944594 63.46118007 44.27835294 66.87022657 44.50878906 70.28369141 C45.99634921 94.0934041 45.99634921 94.0934041 38.63476562 103.20898438 C34.4919605 107.61226844 30.0178284 111.49956927 25.25793457 115.21960449 C21.55502402 118.13937258 18.53944702 121.33606521 15.5625 125 C13.65763554 127.23008522 12.04816228 128.88052054 9.8125 130.6875 C6.87245245 132.87671725 6.87245245 132.87671725 5 136 C4.34 136 3.68 136 3 136 C2.67 136.99 2.34 137.98 2 139 C1.34 139 0.68 139 0 139 C0 93.13 0 47.26 0 0 Z " fill="#FEFEFD" transform="translate(71,68)"/>
<path d="M0 0 C3.21533796 1.42244063 3.7415736 4.25289533 5.0160675 7.39909363 C5.27541077 8.03879089 5.53475403 8.67848816 5.80195618 9.33757019 C14.12917601 30.29250193 12.34915914 52.5615851 4.1410675 73.14909363 C-3.03272183 88.97098488 -14.28868898 99.3514283 -29.1089325 107.83659363 C-29.90170593 108.35350769 -30.69447937 108.87042175 -31.51127625 109.40299988 C-34.83833268 111.23913478 -38.29858733 112.31871553 -41.9214325 113.39909363 C-42.59496765 113.60727722 -43.26850281 113.81546082 -43.96244812 114.029953 C-46.00566659 114.65367233 -48.05445914 115.2510761 -50.1089325 115.83659363 C-50.75007996 116.0220575 -51.39122742 116.20752136 -52.05180359 116.39860535 C-61.30660916 118.91165353 -70.70934894 118.98049211 -80.241745 118.93424988 C-81.35959381 118.93283493 -82.47744263 118.93141998 -83.62916565 118.92996216 C-87.16411633 118.92440985 -90.69900129 118.91186642 -94.2339325 118.89909363 C-96.64538991 118.89407246 -99.05684832 118.88951064 -101.4683075 118.88542175 C-107.34853787 118.87445608 -113.22873048 118.85776616 -119.1089325 118.83659363 C-119.1089325 118.17659363 -119.1089325 117.51659363 -119.1089325 116.83659363 C-118.4489325 116.83659363 -117.7889325 116.83659363 -117.1089325 116.83659363 C-116.8614325 116.21784363 -116.6139325 115.59909363 -116.3589325 114.96159363 C-114.87152881 112.43300736 -113.67215241 112.11820358 -111.1089325 110.83659363 C-110.8201825 110.23846863 -110.5314325 109.64034363 -110.2339325 109.02409363 C-108.88942603 106.4097755 -107.05632231 105.09117193 -104.78471375 103.28581238 C-103.0307544 101.76898506 -101.60228286 100.1722109 -100.1089325 98.39909363 C-98.77707346 96.87696902 -97.4434462 95.35639131 -96.1089325 93.83659363 C-95.62924011 93.27069519 -95.14954773 92.70479675 -94.65531921 92.12174988 C-84.75015165 80.58221467 -84.75015165 80.58221467 -78.51127625 78.82096863 C-75.02213599 78.65095515 -71.59930099 78.73986286 -68.1089325 78.83659363 C-57.12461625 77.22520249 -47.55842639 72.81755761 -40.5776825 63.99284363 C-36.9694849 58.69570248 -34.86371122 54.02894283 -35.28739929 47.50871277 C-35.77145064 38.53389478 -35.22630614 31.99576836 -29.20573425 24.99226379 C-26.42289919 22.08732306 -23.55833634 19.30656468 -20.5813446 16.60099792 C-18.26653803 14.49692062 -16.02516662 12.33198845 -13.78666687 10.1471405 C-12.34959953 8.77283113 -10.90896801 7.40223678 -9.46440125 6.03581238 C-8.7882225 5.39343124 -8.11204376 4.75105011 -7.41537476 4.08920288 C-6.77824051 3.51301712 -6.14110626 2.93683136 -5.48466492 2.34318542 C-4.92808701 1.83281235 -4.37150909 1.32243927 -3.79806519 0.79660034 C-2.1089325 -0.16340637 -2.1089325 -0.16340637 0 0 Z " fill="#FDFCFC" transform="translate(209.1089324951172,106.16340637207031)"/>
<path d="M0 0 C85.47 0 170.94 0 259 0 C259 44.55 259 89.1 259 135 C258.67 135 258.34 135 258 135 C257.67 91.44 257.34 47.88 257 3 C255.68 3.33 254.36 3.66 253 4 C251.54677235 4.08201841 250.09022606 4.11404648 248.63470078 4.10743046 C247.32693133 4.10519194 247.32693133 4.10519194 245.9927423 4.10290819 C245.03943849 4.0961044 244.08613468 4.08930061 243.10394287 4.08229065 C242.08780419 4.07906152 241.0716655 4.07583239 240.02473474 4.07250541 C236.60987647 4.06041341 233.19509793 4.04104395 229.78027344 4.02172852 C227.33636652 4.01158752 224.89245771 4.00189366 222.44854736 3.99261475 C217.18184307 3.97160965 211.91516712 3.94748539 206.64849091 3.92053413 C199.0337568 3.88157249 191.41900626 3.84822048 183.80424002 3.81623887 C171.44987746 3.76419881 159.09554001 3.70762019 146.74121094 3.64819336 C134.73991879 3.59047442 122.73861986 3.53490091 110.73730469 3.48217773 C109.61640155 3.47724948 109.61640155 3.47724948 108.4728539 3.47222167 C101.97272112 3.44366132 95.47258763 3.41526358 88.97245407 3.38688183 C60.98160329 3.26445356 32.99081364 3.13134586 5 3 C5 82.2 5 161.4 5 243 C4.67 243 4.34 243 4 243 C3.67 163.47 3.34 83.94 3 2 C2.01 2 1.02 2 0 2 C0 1.34 0 0.68 0 0 Z " fill="#ED0929" transform="translate(16,24)"/>
<path d="M0 0 C85.47 0 170.94 0 259 0 C259 44.55 259 89.1 259 135 C258.67 135 258.34 135 258 135 C257.67 91.44 257.34 47.88 257 3 C256.01 3.33 255.02 3.66 254 4 C254 3.01 254 2.02 254 1 C170.18 1.33 86.36 1.66 0 2 C0 1.34 0 0.68 0 0 Z " fill="#F02339" transform="translate(16,24)"/>
<path d="M0 0 C23.1 0 46.2 0 70 0 C70 0.33 70 0.66 70 1 C62.08 1.495 62.08 1.495 54 2 C54 2.33 54 2.66 54 3 C53.41562164 3.00586624 52.83124329 3.01173248 52.22915649 3.01777649 C46.16221292 3.08157194 40.09580667 3.16595454 34.02929688 3.26245117 C31.76341829 3.29576336 29.49745546 3.32377545 27.23144531 3.34643555 C23.9794515 3.37986593 20.72823415 3.43217562 17.4765625 3.48828125 C16.45881744 3.49467117 15.44107239 3.5010611 14.39248657 3.50764465 C12.98125015 3.53733589 12.98125015 3.53733589 11.54150391 3.56762695 C10.29574081 3.58428154 10.29574081 3.58428154 9.02481079 3.60127258 C8.35662323 3.73285263 7.68843567 3.86443268 7 4 C6.01 5.485 6.01 5.485 5 7 C3.68 6.67 2.36 6.34 1 6 C1 49.23 1 92.46 1 137 C1.66 137.33 2.32 137.66 3 138 C2.01 138.33 1.02 138.66 0 139 C0 93.13 0 47.26 0 0 Z " fill="#F9E0E8" transform="translate(71,68)"/>
<path d="M0 0 C0.69514804 0.16251975 1.39029608 0.3250395 2.10650921 0.49248409 C5.23123307 1.04055809 8.12345244 1.12290924 11.29585266 1.12025452 C13.19934731 1.12231651 13.19934731 1.12231651 15.14129639 1.12442017 C16.53991723 1.12088148 17.93853783 1.11724668 19.3371582 1.11352539 C20.81570941 1.1132432 22.29426076 1.11340188 23.77281189 1.1139679 C27.78066475 1.11425462 31.78848765 1.10837804 35.79633355 1.10139394 C39.98703881 1.09513965 44.17774477 1.09455496 48.36845398 1.09336853 C56.30147076 1.09026134 64.23447375 1.08205619 72.16748446 1.07201904 C81.20007479 1.06083891 90.23266577 1.05534266 99.26526129 1.05032361 C117.84351535 1.03987308 136.42175656 1.02228548 155 1 C155 1.33 155 1.66 155 2 C147.53699146 3.18668566 140.13859814 3.13417272 132.59765625 3.11352539 C131.14821881 3.11324294 129.69878123 3.11340239 128.24934387 3.1139679 C124.33464052 3.11425361 120.4199681 3.10839352 116.50527191 3.10139394 C112.40667378 3.09512267 108.30807485 3.09455362 104.20947266 3.09336853 C96.45717703 3.09026632 88.70489559 3.08206793 80.9526062 3.07201904 C72.1230864 3.06082339 63.2935659 3.05533876 54.46404076 3.05032361 C36.30935248 3.03988435 18.15467738 3.02230647 0 3 C0 2.01 0 1.02 0 0 Z " fill="#EB1631" transform="translate(16,270)"/>
<path d="M0 0 C0 3.11227195 -0.45627049 5.94152152 -1 9 C-2.65 9.33 -4.3 9.66 -6 10 C-5.67 11.32 -5.34 12.64 -5 14 C-7.61941217 15.74627478 -9.03824877 16.38722388 -12 17 C-12 17.66 -12 18.32 -12 19 C-11.34 19.33 -10.68 19.66 -10 20 C-10.66 20 -11.32 20 -12 20 C-12 20.66 -12 21.32 -12 22 C-11.01 22 -10.02 22 -9 22 C-9 22.66 -9 23.32 -9 24 C-11.31 23.34 -13.62 22.68 -16 22 C-16 22.99 -16 23.98 -16 25 C-16.99 24.67 -17.98 24.34 -19 24 C-18.67 23.34 -18.34 22.68 -18 22 C-18.99 21.67 -19.98 21.34 -21 21 C-14.07 14.07 -7.14 7.14 0 0 Z " fill="#F6F9F8" transform="translate(205,108)"/>
<path d="M0 0 C0.99 0.33 1.98 0.66 3 1 C3.99 0.67 4.98 0.34 6 0 C6 0.66 6 1.32 6 2 C6.66 2.33 7.32 2.66 8 3 C3.38 7.62 -1.24 12.24 -6 17 C-8.475 16.01 -8.475 16.01 -11 15 C-10.34 13.35 -9.68 11.7 -9 10 C-8.01 11.485 -8.01 11.485 -7 13 C-5.10134397 10.02819057 -3.64544429 7.48539917 -3 4 C-1.68 4 -0.36 4 1 4 C1 3.34 1 2.68 1 2 C0.01 2.33 -0.98 2.66 -2 3 C-2 2.34 -2 1.68 -2 1 C-1.34 0.67 -0.68 0.34 0 0 Z " fill="#F5F8F8" transform="translate(104,164)"/>
<path d="M0 0 C0.33 0.66 0.66 1.32 1 2 C1.99 2.33 2.98 2.66 4 3 C-0.95 7.95 -5.9 12.9 -11 18 C-11.99 17.67 -12.98 17.34 -14 17 C-14 16.34 -14 15.68 -14 15 C-13.360625 14.4225 -12.72125 13.845 -12.0625 13.25 C-9.55649582 10.51617726 -9.33019491 8.63214398 -9 5 C-8.67 5.66 -8.34 6.32 -8 7 C-4.46399535 5.08864614 -2.21027154 3.37357234 0 0 Z " fill="#F7F5F6" transform="translate(182,90)"/>
<path d="M0 0 C2.1875 0.3125 2.1875 0.3125 4 1 C0.12423543 6.25103587 -4.27744746 9.8295485 -10 13 C-10.66 13 -11.32 13 -12 13 C-12.33 10.69 -12.66 8.38 -13 6 C-11.68 5.67 -10.36 5.34 -9 5 C-8.67 5.66 -8.34 6.32 -8 7 C-4.52082664 4.3059429 -4.52082664 4.3059429 -1.4375 1.1875 C-0.963125 0.795625 -0.48875 0.40375 0 0 Z " fill="#F7EBED" transform="translate(194,199)"/>
<path d="M0 0 C0 3.90838866 -1.50567876 5.11594107 -4 8 C-3.34 8.33 -2.68 8.66 -2 9 C-3.375 11 -3.375 11 -5 13 C-5.66 13 -6.32 13 -7 13 C-7 13.66 -7 14.32 -7 15 C-9.97 15.66 -12.94 16.32 -16 17 C-13.21638971 13.39161629 -10.25868589 10.1829025 -7 7 C-5.72784219 5.73049252 -4.4570529 4.45961248 -3.1875 3.1875 C-2.125 2.125 -1.0625 1.0625 0 0 Z " fill="#F6E0E2" transform="translate(116,197)"/>
<path d="M0 0 C0 0.66 0 1.32 0 2 C-2.87300062 4.87300062 -5.02762275 6.21343397 -9.01171875 6.6328125 C-9.76904297 6.71660156 -10.52636719 6.80039063 -11.30664062 6.88671875 C-12.09232422 6.96535156 -12.87800781 7.04398438 -13.6875 7.125 C-14.48478516 7.21136719 -15.28207031 7.29773438 -16.10351562 7.38671875 C-18.06823326 7.59848472 -20.03402796 7.80021473 -22 8 C-21.34 7.67 -20.68 7.34 -20 7 C-20 6.34 -20 5.68 -20 5 C-17.04283593 4.16247839 -14.084087 3.33069969 -11.125 2.5 C-10.28324219 2.26152344 -9.44148437 2.02304688 -8.57421875 1.77734375 C-7.76855469 1.55175781 -6.96289062 1.32617188 -6.1328125 1.09375 C-5.38918457 0.88427734 -4.64555664 0.67480469 -3.87939453 0.45898438 C-2 0 -2 0 0 0 Z " fill="#EC0D29" transform="translate(171,218)"/>
<path d="M0 0 C6.81987029 0.43300764 11.91643021 1.90787824 18 5 C14.91190305 6.76462683 13.76687864 7 10 7 C10 6.34 10 5.68 10 5 C7.36 5.33 4.72 5.66 2 6 C2.33 5.01 2.66 4.02 3 3 C3.66 3 4.32 3 5 3 C5 2.34 5 1.68 5 1 C3.35 1.33 1.7 1.66 0 2 C0 1.34 0 0.68 0 0 Z " fill="#ED0C2D" transform="translate(139,107)"/>
<path d="M0 0 C0.33 0 0.66 0 1 0 C1.33 3.3 1.66 6.6 2 10 C1.01 10 0.02 10 -1 10 C-1.33 10.66 -1.66 11.32 -2 12 C-2.33 12.33 -2.66 12.66 -3 13 C-5.00720923 12.71325582 -7.0085944 12.38133299 -9 12 C-8.60167969 11.55269531 -8.20335937 11.10539063 -7.79296875 10.64453125 C-4.8091044 7.23958629 -2.26706762 3.93753849 0 0 Z " fill="#F7F5F5" transform="translate(171,166)"/>
<path d="M0 0 C0.66 0.66 1.32 1.32 2 2 C0.78128616 3.92333003 -0.45045391 5.83840936 -1.6875 7.75 C-2.37199219 8.81734375 -3.05648437 9.8846875 -3.76171875 10.984375 C-5.93589065 13.91362579 -8.0559984 15.87578168 -11 18 C-11.33 17.01 -11.66 16.02 -12 15 C-11.236875 14.505 -10.47375 14.01 -9.6875 13.5 C-6.64078417 10.66584574 -6.00236224 8.68078174 -4.7578125 4.83984375 C-3.74160115 2.37265021 -2.30614902 1.27235808 0 0 Z " fill="#F6EDEC" transform="translate(209,182)"/>
<path d="M0 0 C0.33 0 0.66 0 1 0 C1.38297872 18.34042553 1.38297872 18.34042553 -1 27 C-2.48828125 25.73046875 -2.48828125 25.73046875 -4 24 C-4.1875 20.3125 -4.1875 20.3125 -4 17 C-3.34 17 -2.68 17 -2 17 C-0.84429296 13.53287889 -0.67164707 10.4585044 -0.4375 6.8125 C-0.35371094 5.54019531 -0.26992187 4.26789063 -0.18359375 2.95703125 C-0.12300781 1.98121094 -0.06242188 1.00539062 0 0 Z " fill="#F9CAD0" transform="translate(219,139)"/>
<path d="M0 0 C1.42194153 0.00399422 2.8438839 0.01876348 4.265625 0.04296875 C5.32136719 0.04393555 5.32136719 0.04393555 6.3984375 0.04492188 C10.53663931 0.07953509 14.44038165 0.42951683 18.515625 1.23046875 C18.515625 1.56046875 18.515625 1.89046875 18.515625 2.23046875 C13.235625 1.90046875 7.955625 1.57046875 2.515625 1.23046875 C2.515625 2.55046875 2.515625 3.87046875 2.515625 5.23046875 C-0.124375 5.23046875 -2.764375 5.23046875 -5.484375 5.23046875 C-5.484375 0.72619213 -4.39601412 0.29076775 0 0 Z " fill="#F9F1F0" transform="translate(138.484375,68.76953125)"/>
<path d="M0 0 C1.1875 1.625 1.1875 1.625 2 4 C0.625 7.25 0.625 7.25 -1 10 C-3.31 10 -5.62 10 -8 10 C-6.05463044 6.30379783 -4.74284906 4.74666289 -1 3 C-0.67 2.01 -0.34 1.02 0 0 Z " fill="#F6EBEA" transform="translate(99,214)"/>
<path d="M0 0 C0.66 0.66 1.32 1.32 2 2 C-5.11389522 13.70615034 -5.11389522 13.70615034 -10 18 C-9.4971641 14.31253672 -9.00153469 11.17890804 -7 8 C-6.34 7.67 -5.68 7.34 -5 7 C-4.34 7.33 -3.68 7.66 -3 8 C-3.33 6.35 -3.66 4.7 -4 3 C-3.01 2.67 -2.02 2.34 -1 2 C-0.67 1.34 -0.34 0.68 0 0 Z " fill="#ED223E" transform="translate(256,210)"/>
<path d="M0 0 C0.33 0 0.66 0 1 0 C1.19476139 2.60380996 1.38108614 5.20775533 1.5625 7.8125 C1.61857422 8.55048828 1.67464844 9.28847656 1.73242188 10.04882812 C1.95769724 13.36788516 2.06255812 15.81232564 1 19 C-0.65 18.67 -2.3 18.34 -4 18 C-3.69255859 16.93072266 -3.69255859 16.93072266 -3.37890625 15.83984375 C-1.89379353 10.56023251 -0.60587654 5.45288884 0 0 Z " fill="#EB1B37" transform="translate(218,159)"/>
<path d="M0 0 C1.485 0.99 1.485 0.99 3 2 C3.66 1.67 4.32 1.34 5 1 C4.34 4.3 3.68 7.6 3 11 C2.34 11 1.68 11 1 11 C0.67 12.65 0.34 14.3 0 16 C-0.33 16 -0.66 16 -1 16 C-1.02685095 13.52076199 -1.04676547 11.0418116 -1.0625 8.5625 C-1.07506836 7.50192383 -1.07506836 7.50192383 -1.08789062 6.41992188 C-1.09653588 4.61306441 -1.05220011 2.80612397 -1 1 C-0.67 0.67 -0.34 0.34 0 0 Z " fill="#FADCDE" transform="translate(176,137)"/>
<path d="M0 0 C1.65 0.33 3.3 0.66 5 1 C3.35 2.98 1.7 4.96 0 7 C-4.75 6.25 -4.75 6.25 -7 4 C-6.34 4 -5.68 4 -5 4 C-5 3.34 -5 2.68 -5 2 C-3.35 1.67 -1.7 1.34 0 1 C0 0.67 0 0.34 0 0 Z " fill="#F7F3F3" transform="translate(164,108)"/>
<path d="M0 0 C4.99275057 1.27721526 7.57611908 3.17330957 11 7 C8.03 9.475 8.03 9.475 5 12 C4.375 10.125 4.375 10.125 4 8 C4.66 7.34 5.32 6.68 6 6 C5.01 5.195625 4.02 4.39125 3 3.5625 C2.01 2.716875 1.02 1.87125 0 1 C0 0.67 0 0.34 0 0 Z " fill="#F6F2F1" transform="translate(181,80)"/>
<path d="M0 0 C1.23556641 0.01740234 1.23556641 0.01740234 2.49609375 0.03515625 C3.32238281 0.04417969 4.14867187 0.05320313 5 0.0625 C5.63808594 0.07410156 6.27617187 0.08570313 6.93359375 0.09765625 C5.94359375 0.42765625 4.95359375 0.75765625 3.93359375 1.09765625 C3.60359375 2.08765625 3.27359375 3.07765625 2.93359375 4.09765625 C2.93359375 3.43765625 2.93359375 2.77765625 2.93359375 2.09765625 C0.95359375 2.75765625 -1.02640625 3.41765625 -3.06640625 4.09765625 C-3.39640625 5.74765625 -3.72640625 7.39765625 -4.06640625 9.09765625 C-5.71640625 8.76765625 -7.36640625 8.43765625 -9.06640625 8.09765625 C-8.08774287 6.95139303 -7.10846038 5.80565837 -6.12890625 4.66015625 C-5.58363281 4.02207031 -5.03835937 3.38398438 -4.4765625 2.7265625 C-2.20642743 0.10427351 -2.20642743 0.10427351 0 0 Z " fill="#F5D6DB" transform="translate(129.06640625,185.90234375)"/>
<path d="M0 0 C0 3.99904969 -1.72586967 5.80200422 -4 9 C-7.3 8.34 -10.6 7.68 -14 7 C-9.33333333 4.66666667 -4.66666667 2.33333333 0 0 Z " fill="#F6E4E6" transform="translate(160,178)"/>
<path d="M0 0 C0.66 0 1.32 0 2 0 C2.33 1.65 2.66 3.3 3 5 C2.236875 4.9175 1.47375 4.835 0.6875 4.75 C-0.199375 4.8325 -1.08625 4.915 -2 5 C-3.63676257 6.9600281 -3.63676257 6.9600281 -5 9 C-5.99 9 -6.98 9 -8 9 C-8 8.34 -8 7.68 -8 7 C-8.99 6.67 -9.98 6.34 -11 6 C-10.67 5.34 -10.34 4.68 -10 4 C-8.9171875 4.4021875 -8.9171875 4.4021875 -7.8125 4.8125 C-6.4203125 4.9053125 -6.4203125 4.9053125 -5 5 C-2.29151077 2.62494782 -2.29151077 2.62494782 0 0 Z " fill="#EC1D39" transform="translate(169,109)"/>
<path d="M0 0 C1.37432457 3.81756824 0.67975039 7.07255329 0 11 C-1.32 11 -2.64 11 -4 11 C-3.34 11.33 -2.68 11.66 -2 12 C-2 12.99 -2 13.98 -2 15 C-3.98 15.33 -5.96 15.66 -8 16 C-7.38511719 14.89591797 -7.38511719 14.89591797 -6.7578125 13.76953125 C-6.21898437 12.79371094 -5.68015625 11.81789062 -5.125 10.8125 C-4.59132812 9.84957031 -4.05765625 8.88664063 -3.5078125 7.89453125 C-2.1576322 5.30260482 -1.02901671 2.73238902 0 0 Z " fill="#EB1F3B" transform="translate(213,177)"/>
<path d="M0 0 C1.43861294 0.08746284 2.87597508 0.19565348 4.3125 0.3125 C5.11300781 0.37050781 5.91351563 0.42851562 6.73828125 0.48828125 C9.36272334 1.08206694 10.30820672 1.95780294 12 4 C10.56853622 4.41713515 9.12941114 4.8080497 7.6875 5.1875 C6.88699219 5.40792969 6.08648437 5.62835938 5.26171875 5.85546875 C3 6 3 6 1.20703125 4.73828125 C0 3 0 3 0 0 Z " fill="#F01D3C" transform="translate(182,262)"/>
<path d="M0 0 C0.5775 0.226875 1.155 0.45375 1.75 0.6875 C1.75 1.6775 1.75 2.6675 1.75 3.6875 C-3.2 5.1725 -3.2 5.1725 -8.25 6.6875 C-4.58766234 -0.63717532 -4.58766234 -0.63717532 0 0 Z " fill="#F8E8E7" transform="translate(173.25,213.3125)"/>
<path d="M0 0 C0 3.11227195 -0.45627049 5.94152152 -1 9 C-3.64 9.33 -6.28 9.66 -9 10 C-8.06409496 8.8944811 -7.12620142 7.79064547 -6.1875 6.6875 C-5.66542969 6.07261719 -5.14335937 5.45773438 -4.60546875 4.82421875 C-3.12827531 3.14575321 -1.59960869 1.56117966 0 0 Z " fill="#F4DFE0" transform="translate(205,108)"/>
<path d="M0 0 C1.875 0.0625 1.875 0.0625 4 1 C5.8125 3.9375 5.8125 3.9375 7 7 C6.67 7.66 6.34 8.32 6 9 C4.35 9 2.7 9 1 9 C1.66 7.35 2.32 5.7 3 4 C2.34 4 1.68 4 1 4 C1 3.34 1 2.68 1 2 C0.34 1.67 -0.32 1.34 -1 1 C-0.67 0.67 -0.34 0.34 0 0 Z " fill="#F7DEE1" transform="translate(207,106)"/>
<path d="M0 0 C0.99 0 1.98 0 3 0 C3.66 2.31 4.32 4.62 5 7 C3.35 7.66 1.7 8.32 0 9 C0 6.03 0 3.06 0 0 Z " fill="#F8F1F1" transform="translate(72,196)"/>
<path d="M0 0 C0.33 0 0.66 0 1 0 C1.3125 2.1875 1.3125 2.1875 1 5 C-1.375 7.8125 -1.375 7.8125 -4 10 C-4.66 10 -5.32 10 -6 10 C-6 8.35 -6 6.7 -6 5 C-4.35 4.67 -2.7 4.34 -1 4 C-0.67 2.68 -0.34 1.36 0 0 Z " fill="#EB1432" transform="translate(166,168)"/>
<path d="M0 0 C0.91007813 0.10183594 1.82015625 0.20367187 2.7578125 0.30859375 C3.45648438 0.39238281 4.15515625 0.47617188 4.875 0.5625 C1.71259418 2.67077055 0.36842531 2.90067465 -3.3125 3.1875 C-4.66408203 3.29964844 -4.66408203 3.29964844 -6.04296875 3.4140625 C-7.07357422 3.48753906 -7.07357422 3.48753906 -8.125 3.5625 C-7.795 2.5725 -7.465 1.5825 -7.125 0.5625 C-4.50184968 -0.74907516 -2.89466564 -0.33399988 0 0 Z " fill="#F9D9DE" transform="translate(154.125,220.4375)"/>
<path d="M0 0 C0.66 1.98 1.32 3.96 2 6 C0.35 6.66 -1.3 7.32 -3 8 C-3.33 5.69 -3.66 3.38 -4 1 C-2 0 -2 0 0 0 Z " fill="#F5F5F4" transform="translate(185,204)"/>
<path d="M0 0 C1.98 0.66 3.96 1.32 6 2 C5.67 3.32 5.34 4.64 5 6 C4.34 6 3.68 6 3 6 C3 6.66 3 7.32 3 8 C3.66 8 4.32 8 5 8 C5 8.66 5 9.32 5 10 C3.35 9.67 1.7 9.34 0 9 C1.32 6.69 2.64 4.38 4 2 C3.34 2 2.68 2 2 2 C1.67 2.66 1.34 3.32 1 4 C0.67 2.68 0.34 1.36 0 0 Z " fill="#F2FBFA" transform="translate(165,99)"/>
<path d="M0 0 C1 4 1 4 1 7 C0.67 7.33 0.34 7.66 0 8 C-2.00720923 7.71325582 -4.0085944 7.38133299 -6 7 C-4.02 4.69 -2.04 2.38 0 0 Z " fill="#F9ECEE" transform="translate(168,171)"/>
<path d="M0 0 C0 5 0 5 -1.8125 7.0625 C-4 9 -4 9 -7 10 C-7.66 9.67 -8.32 9.34 -9 9 C-6.03 6.03 -3.06 3.06 0 0 Z " fill="#F8D6DA" transform="translate(195,118)"/>
<path d="M0 0 C0.66 0 1.32 0 2 0 C2.185625 0.9590625 2.185625 0.9590625 2.375 1.9375 C2.684375 2.9584375 2.684375 2.9584375 3 4 C3.66 4.33 4.32 4.66 5 5 C3.68 7.31 2.36 9.62 1 12 C0.67 12 0.34 12 0 12 C0 10.02 0 8.04 0 6 C0.66 6 1.32 6 2 6 C1.34 4.02 0.68 2.04 0 0 Z " fill="#EC1C3A" transform="translate(168,159)"/>
<path d="M0 0 C1 4 1 4 0.0625 6.25 C-0.4634375 7.11625 -0.4634375 7.11625 -1 8 C-1.99 8 -2.98 8 -4 8 C-4.66 7.34 -5.32 6.68 -6 6 C-4.02 4.02 -2.04 2.04 0 0 Z " fill="#EE2341" transform="translate(107,171)"/>
<path d="M0 0 C1.13732426 3.40401948 0.83989957 5.77456664 0.0625 9.25 C-0.13214844 10.14203125 -0.32679688 11.0340625 -0.52734375 11.953125 C-0.68332031 12.62859375 -0.83929688 13.3040625 -1 14 C-3.1519437 10.77208445 -3.20086443 9.71599191 -3 6 C-2.34 6 -1.68 6 -1 6 C-1.33 5.01 -1.66 4.02 -2 3 C-1.34 3 -0.68 3 0 3 C0 2.01 0 1.02 0 0 Z " fill="#F1304D" transform="translate(273,164)"/>
<path d="M0 0 C1.45922693 0.11409593 2.91740598 0.24165544 4.375 0.375 C5.59316406 0.47941406 5.59316406 0.47941406 6.8359375 0.5859375 C9 1 9 1 11 3 C10 4 10 4 7.4375 4.0625 C6.2309375 4.0315625 6.2309375 4.0315625 5 4 C5 3.01 5 2.02 5 1 C3.35 1.33 1.7 1.66 0 2 C0 1.34 0 0.68 0 0 Z " fill="#EC2F4B" transform="translate(139,107)"/>
<path d="M0 0 C1.32 0.66 2.64 1.32 4 2 C4 3.65 4 5.3 4 7 C2.68 6.67 1.36 6.34 0 6 C-1.125 2.25 -1.125 2.25 0 0 Z " fill="#F6F5F4" transform="translate(174,76)"/>
<path d="M0 0 C4.75 1.875 4.75 1.875 7 3 C7 3.66 7 4.32 7 5 C7.66 5 8.32 5 9 5 C9 5.66 9 6.32 9 7 C5.66666667 5.66666667 2.33333333 4.33333333 -1 3 C-0.67 2.01 -0.34 1.02 0 0 Z " fill="#EE1D3A" transform="translate(176,74)"/>
<path d="M0 0 C0 0.66 0 1.32 0 2 C-2 4 -2 4 -4 5 C-5.33333333 4.66666667 -6.66666667 4.33333333 -8 4 C-8.99 4.495 -8.99 4.495 -10 5 C-10.66 4.34 -11.32 3.68 -12 3 C-10.37604003 2.49663233 -8.75079459 1.99741024 -7.125 1.5 C-6.22007812 1.2215625 -5.31515625 0.943125 -4.3828125 0.65625 C-2 0 -2 0 0 0 Z " fill="#F01F41" transform="translate(171,218)"/>
<path d="M0 0 C0.33 0.66 0.66 1.32 1 2 C1.66 2.33 2.32 2.66 3 3 C2.34 3.66 1.68 4.32 1 5 C0.67 5.99 0.34 6.98 0 8 C-1.65 7.67 -3.3 7.34 -5 7 C-3.35 4.69 -1.7 2.38 0 0 Z " fill="#EA1631" transform="translate(204,193)"/>
<path d="M0 0 C-0.33 1.32 -0.66 2.64 -1 4 C-3.60582371 4.93065133 -4.64198224 5.14917407 -7.25 4.0625 C-7.8275 3.711875 -8.405 3.36125 -9 3 C-2.25 0 -2.25 0 0 0 Z " fill="#ED223B" transform="translate(180,214)"/>
<path d="M0 0 C0.66 0.33 1.32 0.66 2 1 C1.67 1.66 1.34 2.32 1 3 C2.32 3.33 3.64 3.66 5 4 C3.625 5.5 3.625 5.5 2 7 C1.34 7 0.68 7 0 7 C-1.125 2.25 -1.125 2.25 0 0 Z " fill="#F7E9EA" transform="translate(80,190)"/>
<path d="M0 0 C1.61949011 2.57213134 2.04408751 3.67669159 1.625 6.75 C1.41875 7.4925 1.2125 8.235 1 9 C-3 4.25 -3 4.25 -3 2 C-2.01 1.34 -1.02 0.68 0 0 Z " fill="#F01835" transform="translate(267,182)"/>
<path d="M0 0 C-1.98 1.32 -3.96 2.64 -6 4 C-6 2.68 -6 1.36 -6 0 C-3.50907189 -1.24546405 -2.58919267 -0.7767578 0 0 Z " fill="#F11B38" transform="translate(227,247)"/>
<path d="M0 0 C2.64 0.66 5.28 1.32 8 2 C7.01 3.485 7.01 3.485 6 5 C5.01 5 4.02 5 3 5 C3 4.34 3 3.68 3 3 C2.01 2.67 1.02 2.34 0 2 C0 1.34 0 0.68 0 0 Z " fill="#EA2847" transform="translate(158,113)"/>
<path d="M0 0 C0.33 0 0.66 0 1 0 C1 1.65 1 3.3 1 5 C-0.98 5.33 -2.96 5.66 -5 6 C-3.35830472 3.97945196 -1.69088222 1.97956942 0 0 Z " fill="#ED213E" transform="translate(178,100)"/>
</svg>
